<svg width="25" height="25" viewBox="0 0 25 25" fill="none" xmlns="http://www.w3.org/2000/svg">
<path d="M11.0095 0C4.93901 0 0 4.93901 0 11.0095C0 17.0803 4.93901 22.0189 11.0095 22.0189C17.0803 22.0189 22.0189 17.0803 22.0189 11.0095C22.0189 4.93901 17.0803 0 11.0095 0ZM11.0095 19.9865C6.05962 19.9865 2.03252 15.9594 2.03252 11.0095C2.03252 6.05967 6.05962 2.03252 11.0095 2.03252C15.9593 2.03252 19.9864 6.05962 19.9864 11.0095C19.9864 15.9593 15.9593 19.9865 11.0095 19.9865Z" fill="#878787"/>
<path d="M24.702 23.2654L18.8754 17.4389C18.4784 17.0419 17.8354 17.0419 17.4384 17.4389C17.0414 17.8356 17.0414 18.4792 17.4384 18.8759L23.265 24.7025C23.4634 24.9009 23.7233 25.0002 23.9835 25.0002C24.2433 25.0002 24.5034 24.9009 24.702 24.7025C25.099 24.3058 25.099 23.6621 24.702 23.2654Z" fill="#878787"/>
</svg>
